first trial
nRows=19
nColumns=38

# SIMM Motion File Header:
name Sujet_02_velo_100.mvnx
datacolumns 38
datarows 19
otherdata 1
range 11.7830 12.0830
endheader
time pelvis_tilt  pelvis_list  pelvis_rotation  pelvis_tx  pelvis_ty  pelvis_tz  hip_flexion_r  hip_adduction_r  hip_rotation_r  knee_angle_r  ankle_angle_r  subtalar_angle_r  mtp_angle_r  hip_flexion_l  hip_adduction_l  hip_rotation_l  knee_angle_l  ankle_angle_l  subtalar_angle_l  mtp_angle_l  lumbar_extension  lumbar_bending  lumbar_rotation  arm_flex_r  arm_add_r  arm_rot_r  elbow_flex_r  pro_sup_r  wrist_flex_r  wrist_dev_r  arm_flex_l  arm_add_l  arm_rot_l  elbow_flex_l  pro_sup_l  wrist_flex_l  wrist_dev_l
11.7830	1.2380	-0.2823	-83.4007	-2.5611	11.6191	17.2775	62.7143	-3.0112	-0.9518	101.9908	3.8541	-10.2006	-0.0000	35.6520	0.9413	-6.1365	42.9509	-27.1420	-10.4983	0.0000	-24.7723	4.3534	3.1752	88.3860	-12.2072	39.5415	4.1995	76.4634	-4.3896	10.2475	91.1763	6.7728	41.0999	0.8009	85.5422	-16.3060	-3.8890	
11.7990	1.2722	-0.4270	-83.5555	-2.5622	11.6360	17.2998	62.8700	-2.3783	-0.5293	99.4627	5.8374	-11.8518	0.0000	34.9365	0.6634	-6.5599	44.9043	-27.3569	-10.9841	0.0000	-24.6592	4.4156	3.1938	88.3487	-11.7119	39.2615	4.3110	76.8554	-4.4309	10.3468	91.0181	6.5819	41.2659	0.9111	84.9818	-16.2465	-3.7508	
11.8160	1.2832	-0.6264	-83.6125	-2.5632	11.6541	17.3224	62.9092	-1.7936	-0.1158	96.9789	7.4931	-12.8842	-0.0000	35.1369	0.6006	-6.4986	48.2452	-27.3729	-11.7063	0.0000	-24.6391	4.5218	3.2070	88.2445	-11.3543	39.0075	4.7505	77.1018	-4.6863	10.4399	90.9362	6.3082	40.9402	1.3704	84.9199	-16.0916	-3.4222	
11.8330	1.2913	-0.8471	-83.5941	-2.5642	11.6729	17.3452	62.6406	-1.2408	0.2833	94.1289	8.9083	-13.5527	-0.0000	36.0910	0.7091	-6.1152	52.7850	-27.2061	-12.5878	0.0000	-24.6680	4.6470	3.2105	88.1067	-11.1182	38.7943	5.3578	77.2522	-5.0640	10.5031	90.8872	6.0149	40.4013	2.0019	85.0927	-15.8772	-2.9798	
11.8490	1.3379	-1.0222	-83.5154	-2.5656	11.6917	17.3675	62.0481	-0.8531	0.3529	90.9444	9.7784	-13.8516	-0.0000	37.3963	0.9023	-5.5484	57.7234	-26.9484	-13.2735	-0.0000	-24.6753	4.7581	3.1706	87.9808	-11.1083	38.8118	5.8028	77.2490	-5.4443	10.5119	90.8527	5.7637	40.1479	2.4758	85.1532	-15.7826	-2.7073	
11.8660	1.4595	-1.1197	-83.3813	-2.5676	11.7104	17.3887	61.2992	-0.7370	-0.1826	87.5826	9.9180	-13.5874	0.0000	38.9159	1.1810	-4.8234	62.9184	-26.5506	-13.5355	0.0000	-24.6269	4.8435	3.0694	87.8619	-11.4783	39.2936	5.9725	76.9454	-5.8433	10.4395	90.8967	5.5488	40.4870	2.6230	84.8940	-15.8851	-2.7300	
11.8830	1.6196	-1.1721	-83.1868	-2.5700	11.7291	17.4094	60.2290	-0.7689	-1.0538	83.9005	9.5049	-12.9002	-0.0000	40.7835	1.5732	-3.9318	68.5082	-26.0424	-13.5838	0.0000	-24.5566	4.9142	2.9242	87.7628	-12.0724	40.0088	5.9862	76.4842	-6.2472	10.3080	90.9579	5.3747	41.1127	2.6146	84.5233	-16.1091	-2.9229	
11.8990	1.7509	-1.2094	-82.9312	-2.5724	11.7474	17.4303	58.3278	-0.7254	-1.7602	79.4761	8.7664	-12.2382	-0.0000	43.0068	2.0247	-2.9614	74.0964	-25.6193	-13.6796	0.0000	-24.4964	4.9720	2.7532	87.7441	-12.5363	40.4445	5.8508	76.2376	-6.4921	10.1623	90.8305	5.3150	41.6047	2.6321	84.3170	-16.4027	-3.1919	
11.9160	1.8152	-1.2486	-82.5859	-2.5746	11.7649	17.4518	55.1800	-0.4857	-2.1168	73.7693	7.7603	-11.7396	-0.0000	45.6925	2.5141	-1.8566	79.7635	-25.3645	-13.9211	-0.0000	-24.4415	5.0259	2.5545	87.8752	-12.6778	40.3161	5.4402	76.4565	-6.4571	10.0145	90.3381	5.4422	41.8023	2.6747	84.3819	-16.7861	-3.5931	
11.9330	1.8508	-1.2726	-82.1799	-2.5767	11.7820	17.4735	51.2028	-0.1572	-2.3067	67.3135	6.4317	-11.2386	-0.0000	48.7332	3.1050	-0.7003	85.4144	-25.1935	-14.1774	0.0000	-24.3971	5.0670	2.3303	88.0770	-12.6958	39.9029	4.8730	76.8949	-6.2630	9.8543	89.6563	5.6843	41.8687	2.7423	84.6097	-17.2386	-4.0685	
11.9490	1.9062	-1.2592	-81.7988	-2.5791	11.7999	17.4949	47.1361	0.1230	-2.3823	61.2932	4.8348	-10.7524	-0.0000	51.8183	3.8288	0.2207	90.3971	-25.0543	-14.3597	0.0000	-24.4107	5.0721	2.1064	88.1745	-12.8244	39.5338	4.5112	77.1726	-6.1080	9.6925	89.1070	5.8929	41.8660	3.0158	84.9531	-17.6425	-4.3486	
11.9660	1.9850	-1.2017	-81.4418	-2.5819	11.8189	17.5160	43.0177	0.3001	-2.2739	55.8002	2.7981	-10.3171	0.0000	54.9693	4.7100	0.7295	94.5541	-25.0449	-14.3695	-0.0000	-24.5147	5.0364	1.8778	88.0707	-13.1303	39.2527	4.5183	77.1397	-6.0569	9.5669	88.8262	6.0279	41.8146	3.6059	85.4293	-17.9920	-4.3251	
11.9830	2.0842	-1.1073	-81.1100	-2.5850	11.8386	17.5369	38.8048	0.3951	-2.0689	50.7336	0.4840	-9.9159	-0.0000	58.1728	5.6707	0.9788	98.0500	-25.0621	-14.3172	-0.0000	-24.6773	4.9663	1.6496	87.8590	-13.5416	39.0145	4.7315	76.9414	-6.0440	9.4387	88.6776	6.1282	41.6914	4.4032	86.0294	-18.2887	-4.1011	
11.9990	2.2424	-0.9759	-80.8923	-2.5883	11.8584	17.5575	35.1192	0.3977	-2.0570	46.9916	-1.5546	-9.4938	0.0000	61.0633	6.5628	1.2150	100.7170	-24.7456	-14.4543	0.0000	-24.8498	4.8547	1.4630	87.6533	-14.0818	39.0167	5.0237	76.6360	-6.0738	9.2013	88.5751	6.1616	41.4888	5.2577	86.6646	-18.4280	-3.7290	
12.0160	2.5331	-0.7785	-80.8447	-2.5922	11.8778	17.5775	32.0166	0.2879	-2.3803	44.8055	-3.2587	-9.0287	-0.0000	63.6005	7.3749	1.6256	102.6128	-23.8496	-15.0630	0.0000	-25.0274	4.6774	1.3407	87.5172	-14.8858	39.5088	5.3921	76.1560	-6.1862	8.7220	88.5193	6.0926	41.1726	6.1491	87.3294	-18.3144	-3.1513	
12.0330	2.8821	-0.5431	-80.9126	-2.5964	11.8971	17.5972	29.4426	0.0976	-2.8970	43.9452	-4.6983	-8.5218	0.0000	65.8230	8.1121	2.0640	103.6675	-22.5787	-15.9741	-0.0000	-25.2141	4.4570	1.2598	87.3950	-15.8222	40.2403	5.8508	75.5669	-6.3426	8.1327	88.5128	5.9593	40.7758	7.1025	88.0315	-18.0546	-2.4369	
12.0490	3.1057	-0.3547	-81.0182	-2.6000	11.9168	17.6177	27.8550	-0.0907	-3.4496	44.6220	-5.4998	-7.9829	0.0000	67.4786	8.6564	2.3152	103.5332	-21.2885	-16.7056	0.0000	-25.3732	4.2551	1.1925	87.2179	-16.5143	40.6606	6.2853	75.1289	-6.4307	7.7235	88.4703	5.8377	40.3920	8.0308	88.6943	-17.8441	-1.8274	
12.0660	3.1224	-0.2331	-81.1861	-2.6029	11.9370	17.6394	27.5167	-0.2346	-4.1760	47.1743	-5.3870	-7.4172	0.0000	68.5273	8.9469	2.3680	102.0150	-20.0379	-17.0506	-0.0000	-25.4986	4.0670	1.1300	86.9072	-16.7484	40.4394	6.6674	75.0042	-6.3951	7.6262	88.2875	5.7597	39.9884	9.0180	89.3435	-17.7437	-1.3832	
12.0830	3.0139	-0.1595	-81.3900	-2.6052	11.9574	17.6618	28.1625	-0.3936	-4.9226	51.2679	-4.6118	-6.8668	-0.0000	69.0069	9.0336	2.2684	99.3227	-18.8161	-17.1311	0.0000	-25.5958	3.8975	1.0804	86.5372	-16.7318	39.9103	7.0128	75.0318	-6.2893	7.7097	88.0673	5.6937	39.5973	9.9804	89.9553	-17.6875	-1.0397	
